<svg xmlns="http://www.w3.org/2000/svg"  viewBox="0 0 48 48" width="48px" height="48px" fill-rule="evenodd" clip-rule="evenodd" baseProfile="basic"><path fill="#e800b7" fill-opacity=".098" fill-rule="evenodd" d="M13.239,38.64l-0.185-0.347c-1.276,0.627-2.68,0.827-4.029,0.64c-0.259-3.28,1.481-6.187,4.273-6.813 c3.175-0.72,6.515,1.787,7.453,5.573c0.604,2.453,0.065,4.84-1.244,6.427C16.895,43.053,14.728,41.093,13.239,38.64z M27.247,37.693c0.939-3.787,4.279-6.293,7.453-5.573c2.789,0.64,4.529,3.547,4.272,6.813c-1.351,0.187-2.756-0.013-4.031-0.64 l-0.187,0.347c-1.491,2.453-3.656,4.413-6.267,5.48C27.18,42.533,26.642,40.146,27.247,37.693z M13.316,12.493 c-0.229-0.227-1.504-1.507-2.039-2.04c-0.007,0-0.013-0.013-0.02-0.013c1.221-2.653,3.263-4.96,5.819-6.493 c0.129,0.107,0.256,0.213,0.377,0.333c0.535,0.533,1.807,1.813,2.039,2.04c0.277,0.28,0.42,0.613,0.476,0.947 c0.212,1.24-0.721,2.76-1.829,3.88c-1.105,1.107-2.643,2.04-3.879,1.827C13.934,12.92,13.595,12.773,13.316,12.493z M29.852,11.146 c-1.107-1.107-2.04-2.653-1.829-3.88c0.056-0.333,0.199-0.667,0.476-0.947c0.232-0.227,1.504-1.507,2.039-2.04 c0.121-0.12,0.248-0.227,0.379-0.333c2.556,1.533,4.597,3.84,5.82,6.48c-0.008,0.013-0.016,0.027-0.023,0.027 c-0.535,0.533-1.809,1.813-2.039,2.04c-0.279,0.28-0.617,0.427-0.944,0.48C32.491,13.186,30.96,12.253,29.852,11.146z" clip-rule="evenodd"/><path fill="#e800b7" fill-opacity=".2" fill-rule="evenodd" d="M13.88,38.253l-0.524-1.013l-0.636,0.387C11.544,38.2,10.243,38.373,9,38.173c0.045-2.96,1.724-5.467,4.297-6.053 c3.175-0.72,6.515,1.787,7.453,5.573c0.529,2.147,0.183,4.253-0.791,5.8C17.432,42.506,15.324,40.626,13.88,38.253z M27.247,37.693 c0.939-3.787,4.279-6.293,7.453-5.573c2.571,0.587,4.251,3.093,4.296,6.053c-1.244,0.2-2.545,0.027-3.721-0.547l-0.637-0.387 l-0.524,1.013c-1.447,2.373-3.553,4.253-6.077,5.24C27.063,41.946,26.716,39.84,27.247,37.693z M13.316,12.493 c-0.169-0.173-0.903-0.907-1.492-1.493c1.172-2.68,3.231-5.027,5.825-6.52c0.601,0.6,1.635,1.64,1.843,1.84 c0.277,0.28,0.42,0.613,0.476,0.947c0.212,1.24-0.721,2.76-1.829,3.88c-1.105,1.107-2.643,2.04-3.879,1.827 C13.934,12.92,13.595,12.773,13.316,12.493z M29.852,11.146c-1.107-1.107-2.04-2.653-1.829-3.88 c0.056-0.333,0.199-0.667,0.476-0.947c0.207-0.2,1.243-1.24,1.843-1.84c2.596,1.493,4.655,3.84,5.828,6.52 c-0.591,0.587-1.327,1.32-1.495,1.493c-0.279,0.28-0.617,0.427-0.944,0.48C32.491,13.186,30.96,12.253,29.852,11.146z" clip-rule="evenodd"/><path fill="#e800b7" fill-opacity=".298" fill-rule="evenodd" d="M14.522,37.866l-0.876-1.707l-0.304,0.213c-1.271,0.973-2.832,1.307-4.295,1.04c0.295-2.613,1.9-4.76,4.251-5.293 c3.175-0.72,6.515,1.787,7.453,5.573c0.456,1.853,0.26,3.667-0.428,5.133C17.922,41.92,15.904,40.133,14.522,37.866z M27.247,37.693c0.939-3.787,4.279-6.293,7.453-5.573c2.349,0.533,3.955,2.68,4.248,5.293c-1.463,0.267-3.024-0.067-4.293-1.04 l-0.307-0.213l-0.876,1.707c-1.384,2.267-3.4,4.053-5.8,4.96C26.986,41.36,26.79,39.546,27.247,37.693z M13.316,12.493 c-0.116-0.12-0.5-0.493-0.92-0.92c1.111-2.707,3.179-5.08,5.804-6.547c0.544,0.547,1.14,1.147,1.292,1.293 c0.277,0.28,0.42,0.613,0.476,0.947c0.212,1.24-0.721,2.76-1.829,3.88c-1.105,1.107-2.643,2.04-3.879,1.827 C13.934,12.92,13.595,12.773,13.316,12.493z M29.852,11.146c-1.107-1.107-2.04-2.653-1.829-3.88 c0.056-0.333,0.199-0.667,0.476-0.947c0.151-0.147,0.748-0.747,1.293-1.293c2.625,1.467,4.695,3.84,5.805,6.547 c-0.421,0.413-0.807,0.8-0.923,0.92c-0.279,0.28-0.617,0.427-0.944,0.48C32.491,13.186,30.96,12.253,29.852,11.146z" clip-rule="evenodd"/><path fill="#e800b7" fill-opacity=".4" fill-rule="evenodd" d="M14.311,35.826L14.028,35l-1.143,0.773c-1.1,0.84-2.452,1.133-3.717,0.907c0.488-2.28,2.004-4.08,4.129-4.56 c3.175-0.72,6.515,1.787,7.453,5.573c0.387,1.573,0.305,3.12-0.147,4.44C17.816,41.08,15.556,38.76,14.311,35.826z M27.247,37.693 c0.939-3.787,4.279-6.293,7.453-5.573c2.124,0.48,3.639,2.28,4.128,4.56c-1.265,0.227-2.619-0.067-3.717-0.907L33.966,35 l-0.283,0.827c-1.248,2.933-3.505,5.253-6.292,6.307C26.94,40.813,26.859,39.266,27.247,37.693z M13.316,12.493 c-0.059-0.053-0.181-0.187-0.343-0.347c1.039-2.733,3.12-5.147,5.78-6.56c0.344,0.333,0.637,0.627,0.739,0.733 c0.277,0.28,0.42,0.613,0.476,0.947c0.212,1.24-0.721,2.76-1.829,3.88c-1.105,1.107-2.643,2.04-3.879,1.827 C13.934,12.92,13.595,12.773,13.316,12.493z M29.852,11.146c-1.107-1.107-2.04-2.653-1.829-3.88 c0.056-0.333,0.199-0.667,0.476-0.947c0.1-0.107,0.393-0.4,0.739-0.733C31.899,7,33.98,9.413,35.02,12.146 c-0.163,0.16-0.288,0.293-0.345,0.347c-0.279,0.28-0.617,0.427-0.944,0.48C32.491,13.186,30.96,12.253,29.852,11.146z" clip-rule="evenodd"/><linearGradient id="GB-ceF0Ychxge7vNTznLka" x1="-15218.94" x2="-15181.94" y1="16645.133" y2="16645.133" gradientTransform="rotate(-90 -15900.157 720.978)" gradientUnits="userSpaceOnUse"><stop offset="0" stop-color="#ff00c8"/><stop offset="1" stop-color="#ff9af7"/></linearGradient><path fill="url(#GB-ceF0Ychxge7vNTznLka)" d="M14.422,33.826c-0.631,0.373-1.293,0.813-1.992,1.347	c-1.752,1.347-4.265,1.013-5.607-0.747c-1.343-1.747-1.009-4.267,0.744-5.6c2.36-1.813,4.665-3.053,6.956-3.827	c0.272-0.08,0.544-0.173,0.813-0.253c0.348-0.68,0.757-1.333,1.219-1.92c-2.185-1.573-3.556-3.92-3.556-6.827c0-5.52,4.928-11,11-11	s11,5.48,11,11c0,2.907-1.372,5.253-3.559,6.827c0.461,0.587,0.871,1.24,1.22,1.92c0.269,0.08,0.54,0.173,0.813,0.253	c2.291,0.773,4.596,2.013,6.956,3.827c1.753,1.333,2.087,3.853,0.744,5.6c-1.341,1.76-3.855,2.093-5.607,0.747	c-0.699-0.533-1.363-0.973-1.992-1.347C32.334,38.546,28.514,42,23.999,42C19.483,42,15.662,38.546,14.422,33.826z"/><path fill="#fff" fill-opacity=".263" fill-rule="evenodd" d="M23.999,15c3.864,0,7,3.24,7,6s-3.136,4-7,4s-7-1.24-7-4S20.135,15,23.999,15z" clip-rule="evenodd"/><path fill="#db12b0" fill-rule="evenodd" d="M23.999,21	c1.104,0,2-1.613,2-2.72c0-1.093-0.896-1.28-2-1.28s-2,0.187-2,1.28C21.999,19.386,22.895,21,23.999,21z" clip-rule="evenodd"/><ellipse cx="19.499" cy="14.5" fill="#db12b0" fill-rule="evenodd" clip-rule="evenodd" rx="1.501" ry="1.5"/><ellipse cx="28.498" cy="14.5" fill="#db12b0" fill-rule="evenodd" clip-rule="evenodd" rx="1.501" ry="1.5"/><path fill="#e800b7" fill-opacity=".043" fill-rule="evenodd" d="M25.304,37.213c1.117-4.507,5.289-8.067,9.836-7.04c2.669,0.6,4.488,2.56,5.324,4.973c-1.4,1.107-3.42,1.16-4.897,0.027 c-0.699-0.533-1.363-0.973-1.992-1.347c-1.124,4.28-4.363,7.507-8.315,8.08C24.912,40.413,24.918,38.786,25.304,37.213z M14.422,33.826c-0.631,0.373-1.293,0.813-1.992,1.347c-1.479,1.133-3.499,1.08-4.9-0.027c0.837-2.413,2.656-4.373,5.327-4.973 c4.547-1.027,8.719,2.533,9.836,7.04c0.385,1.573,0.391,3.2,0.043,4.693C18.782,41.333,15.543,38.106,14.422,33.826z M28.438,12.56 c-1.165-1.173-2.776-3.347-2.387-5.64c0.085-0.493,0.279-1.04,0.644-1.56c4.325,1.2,7.635,5.133,8.213,9.333 c-0.285,0.12-0.571,0.2-0.84,0.253C31.782,15.333,29.602,13.72,28.438,12.56z M13.923,14.946c-0.269-0.053-0.552-0.133-0.835-0.24 c0.576-4.213,3.884-8.147,8.207-9.333c0.364,0.507,0.559,1.053,0.644,1.547c0.391,2.293-1.221,4.467-2.387,5.64 C18.388,13.72,16.204,15.333,13.923,14.946z" clip-rule="evenodd"/><path fill="#e800b7" fill-opacity=".098" fill-rule="evenodd" d="M25.694,37.32c1.08-4.373,5.087-7.72,9.359-6.76c2.544,0.573,4.289,2.467,5.072,4.827c-1.373,0.867-3.196,0.827-4.557-0.213 c-0.699-0.533-1.363-0.973-1.992-1.347c-1.087,4.133-4.148,7.293-7.921,8.013C25.315,40.4,25.318,38.84,25.694,37.32z M14.422,33.826c-0.631,0.373-1.293,0.813-1.992,1.347c-1.363,1.04-3.185,1.08-4.559,0.213c0.781-2.36,2.528-4.253,5.073-4.827 c4.272-0.96,8.279,2.387,9.359,6.76c0.375,1.52,0.377,3.08,0.039,4.52C18.567,41.12,15.506,37.96,14.422,33.826z M28.72,12.266 c-1.153-1.147-2.628-3.2-2.275-5.28c0.083-0.48,0.279-1.013,0.657-1.493c3.987,1.267,7.035,4.88,7.74,8.8 c-0.284,0.133-0.572,0.213-0.843,0.253C31.923,14.907,29.874,13.426,28.72,12.266z M13.99,14.546 c-0.271-0.04-0.555-0.12-0.837-0.253c0.704-3.92,3.751-7.52,7.736-8.8c0.376,0.48,0.572,1.013,0.656,1.493 c0.356,2.08-1.121,4.133-2.275,5.28C18.118,13.426,16.062,14.907,13.99,14.546z" clip-rule="evenodd"/><path fill="#e800b7" fill-opacity=".2" fill-rule="evenodd" d="M26.082,37.413c1.045-4.227,4.884-7.36,8.883-6.467c2.401,0.547,4.071,2.36,4.805,4.64c-1.321,0.653-2.956,0.547-4.203-0.413 c-0.699-0.533-1.363-0.973-1.992-1.347c-1.049,3.987-3.939,7.067-7.532,7.933C25.718,40.386,25.718,38.88,26.082,37.413z M14.422,33.826c-0.631,0.373-1.293,0.813-1.992,1.347c-1.248,0.96-2.883,1.067-4.204,0.413c0.735-2.28,2.404-4.093,4.807-4.64 c3.999-0.893,7.837,2.24,8.883,6.467c0.363,1.467,0.363,2.973,0.037,4.347C18.358,40.893,15.468,37.813,14.422,33.826z M29.003,11.986c-1.141-1.133-2.481-3.067-2.164-4.92c0.08-0.48,0.279-0.987,0.667-1.44c3.653,1.333,6.451,4.627,7.257,8.253 c-0.279,0.147-0.563,0.227-0.831,0.28C32.064,14.466,30.146,13.133,29.003,11.986z M14.058,14.16 c-0.267-0.053-0.548-0.133-0.824-0.267c0.804-3.627,3.6-6.933,7.251-8.267c0.388,0.453,0.585,0.96,0.667,1.44 c0.319,1.867-1.023,3.787-2.164,4.92C17.846,13.133,15.92,14.466,14.058,14.16z" clip-rule="evenodd"/><path fill="#e800b7" fill-opacity=".298" fill-rule="evenodd" d="M26.47,37.506c1.009-4.08,4.683-7,8.407-6.16c2.244,0.507,3.832,2.227,4.527,4.4c-1.248,0.467-2.703,0.307-3.836-0.573 c-0.699-0.533-1.363-0.973-1.992-1.347c-1.012,3.853-3.733,6.853-7.148,7.827C26.12,40.36,26.119,38.92,26.47,37.506z M14.422,33.826c-0.631,0.373-1.293,0.813-1.992,1.347c-1.135,0.88-2.589,1.04-3.837,0.573c0.693-2.173,2.283-3.893,4.528-4.4 c3.724-0.853,7.397,2.08,8.407,6.16c0.349,1.413,0.348,2.853,0.041,4.147C18.152,40.68,15.431,37.68,14.422,33.826z M29.286,11.706 c-1.129-1.133-2.333-2.92-2.052-4.573c0.076-0.453,0.275-0.947,0.672-1.347c3.324,1.36,5.879,4.36,6.76,7.693 c-0.265,0.147-0.54,0.24-0.8,0.28C32.207,14.04,30.416,12.84,29.286,11.706z M14.124,13.76c-0.259-0.04-0.531-0.133-0.793-0.267 c0.879-3.333,3.432-6.347,6.753-7.707c0.397,0.413,0.595,0.893,0.672,1.347c0.284,1.653-0.921,3.44-2.052,4.573 C17.575,12.84,15.779,14.04,14.124,13.76z" clip-rule="evenodd"/><path fill="#e800b7" fill-opacity=".4" fill-rule="evenodd" d="M26.858,37.6c0.975-3.933,4.481-6.653,7.931-5.867c2.073,0.467,3.575,2.067,4.235,4.133c-1.156,0.307-2.436,0.093-3.456-0.693 c-0.699-0.533-1.363-0.973-1.992-1.347c-0.973,3.707-3.532,6.627-6.767,7.707C26.523,40.306,26.522,38.96,26.858,37.6z M14.422,33.826c-0.631,0.373-1.293,0.813-1.992,1.347c-1.021,0.787-2.303,1-3.457,0.693c0.659-2.067,2.161-3.667,4.236-4.133 c3.449-0.787,6.956,1.933,7.931,5.867c0.335,1.36,0.333,2.707,0.048,3.933C17.951,40.453,15.394,37.533,14.422,33.826z M29.568,11.426c-1.117-1.12-2.187-2.787-1.94-4.227c0.067-0.4,0.241-0.813,0.588-1.16c0.02-0.027,0.048-0.053,0.084-0.093 c3.001,1.387,5.32,4.107,6.252,7.147c-0.245,0.147-0.507,0.227-0.755,0.267C32.348,13.613,30.688,12.546,29.568,11.426z M14.192,13.36c-0.248-0.04-0.505-0.12-0.749-0.267c0.931-3.04,3.248-5.76,6.248-7.133c0.035,0.027,0.063,0.053,0.083,0.08 c0.347,0.347,0.521,0.76,0.588,1.16c0.248,1.44-0.821,3.107-1.94,4.227C17.304,12.546,15.638,13.613,14.192,13.36z" clip-rule="evenodd"/><linearGradient id="GB-ceF0Ychxge7vNTznLkb" x1="-625.22" x2="-582.217" y1="1090.501" y2="1090.501" gradientTransform="rotate(90 243.14 871.36)" gradientUnits="userSpaceOnUse"><stop offset="0" stop-color="#ffe15c"/><stop offset="1" stop-color="#ffbc03"/></linearGradient><path fill="url(#GB-ceF0Ychxge7vNTznLkb)" fill-opacity=".4" d="M31.298,45.88	c-3.175-0.72-4.989-4.387-4.051-8.187c0.939-3.787,4.279-6.293,7.453-5.573c3.175,0.72,4.989,4.387,4.051,8.173	C37.812,44.093,34.472,46.6,31.298,45.88z M9.247,40.293c-0.939-3.787,0.876-7.453,4.051-8.173c3.175-0.72,6.515,1.787,7.453,5.573	c0.939,3.8-0.876,7.467-4.051,8.187C13.526,46.586,10.186,44.093,9.247,40.293z M29.852,11.146c-1.107-1.107-2.04-2.653-1.829-3.88	c0.056-0.333,0.199-0.667,0.476-0.947c0.232-0.227,1.504-1.507,2.039-2.04c1.705-1.707,4.472-1.707,6.179,0	c1.704,1.707,1.701,4.467-0.003,6.173c-0.535,0.533-1.809,1.813-2.039,2.04c-0.279,0.28-0.617,0.427-0.944,0.48	C32.491,13.186,30.96,12.253,29.852,11.146z M14.26,12.973c-0.327-0.053-0.665-0.2-0.944-0.48c-0.229-0.227-1.504-1.507-2.039-2.04	C9.574,8.747,9.571,5.986,11.275,4.28c1.707-1.707,4.473-1.707,6.179,0c0.535,0.533,1.807,1.813,2.039,2.04	c0.277,0.28,0.42,0.613,0.476,0.947c0.212,1.24-0.721,2.76-1.829,3.88C17.034,12.253,15.496,13.186,14.26,12.973z"/><defs><filter id="GB-ceF0Ychxge7vNTznLkd" width="29.999" height="43.003" x="9" y="3" filterUnits="userSpaceOnUse"><feColorMatrix values="1 0 0 0 0 0 1 0 0 0 0 0 1 0 0 0 0 0 1 0"/></filter></defs><mask id="GB-ceF0Ychxge7vNTznLke" width="29.999" height="43.003" x="9" y="3" maskUnits="userSpaceOnUse"><linearGradient id="GB-ceF0Ychxge7vNTznLkc" x1="-15222.453" x2="-15154.693" y1="16889.623" y2="16889.623" gradientTransform="rotate(-90 -15892.131 723.492)" gradientUnits="userSpaceOnUse"><stop offset="0" stop-color="#fff"/><stop offset="1"/></linearGradient><rect width="1137.602" height="2337.598" x="-294.801" y="-494.8" fill="url(#GB-ceF0Ychxge7vNTznLkc)" fill-rule="evenodd" clip-rule="evenodd" filter="url(#GB-ceF0Ychxge7vNTznLkd)"/></mask><linearGradient id="GB-ceF0Ychxge7vNTznLkf" x1="-623.927" x2="-583.53" y1="1089.877" y2="1089.877" gradientTransform="rotate(90 242.828 871.048)" gradientUnits="userSpaceOnUse"><stop offset="0" stop-color="#ffebb0"/><stop offset="1" stop-color="#ffc522"/></linearGradient><path fill="url(#GB-ceF0Ychxge7vNTznLkf)" d="M31.298,45.88	c-3.175-0.72-4.989-4.387-4.051-8.187c0.939-3.787,4.279-6.293,7.453-5.573c3.175,0.72,4.989,4.387,4.051,8.173	C37.812,44.093,34.472,46.6,31.298,45.88z M9.247,40.293c-0.939-3.787,0.876-7.453,4.051-8.173c3.175-0.72,6.515,1.787,7.453,5.573	c0.939,3.8-0.876,7.467-4.051,8.187C13.526,46.586,10.186,44.093,9.247,40.293z M38.264,40.173c0.895-3.613-0.856-6.92-3.675-7.56	c-2.832-0.64-5.964,1.587-6.857,5.213c-0.895,3.613,0.856,6.933,3.675,7.56C34.239,46.026,37.371,43.8,38.264,40.173z M16.59,45.386	c2.819-0.64,4.569-3.96,3.675-7.573c-0.893-3.613-4.025-5.84-6.857-5.2c-2.819,0.627-4.569,3.947-3.675,7.56	C10.626,43.8,13.758,46.026,16.59,45.386z M29.852,11.146c-1.107-1.107-2.04-2.653-1.829-3.88c0.056-0.333,0.199-0.667,0.476-0.947	c0.232-0.227,1.504-1.507,2.039-2.04c1.705-1.707,4.472-1.707,6.179,0c1.704,1.707,1.701,4.467-0.003,6.173	c-0.535,0.533-1.809,1.813-2.039,2.04c-0.279,0.28-0.617,0.427-0.944,0.48C32.491,13.186,30.96,12.253,29.852,11.146z M14.26,12.973	c-0.327-0.053-0.665-0.2-0.944-0.48c-0.229-0.227-1.504-1.507-2.039-2.04C9.574,8.747,9.571,5.986,11.275,4.28	c1.707-1.707,4.473-1.707,6.179,0c0.535,0.533,1.807,1.813,2.039,2.04c0.277,0.28,0.42,0.613,0.476,0.947	c0.212,1.24-0.721,2.76-1.829,3.88C17.034,12.253,15.496,13.186,14.26,12.973z M17.784,10.786c1.095-1.093,1.857-2.467,1.691-3.44	c-0.043-0.24-0.145-0.48-0.336-0.68c-0.232-0.227-1.507-1.507-2.04-2.027c-1.509-1.52-3.96-1.52-5.471-0.013	c-1.509,1.52-1.507,3.96,0.003,5.48c0.532,0.533,1.809,1.8,2.039,2.04c0.192,0.187,0.429,0.293,0.675,0.333	C15.319,12.64,16.694,11.88,17.784,10.786z M34.32,12.146c0.229-0.24,1.507-1.507,2.039-2.04c1.509-1.52,1.512-3.96,0.003-5.48	C34.851,3.12,32.4,3.12,30.891,4.64c-0.533,0.52-1.808,1.8-2.04,2.027c-0.191,0.2-0.293,0.44-0.336,0.68	c-0.165,0.973,0.599,2.347,1.691,3.44c1.093,1.093,2.461,1.853,3.44,1.693C33.891,12.44,34.128,12.333,34.32,12.146z" mask="url(#GB-ceF0Ychxge7vNTznLke)"/></svg>